<?xml version="1.0" standalone="no"?>
<!DOCTYPE svg PUBLIC "-//W3C//DTD SVG 20010904//EN"
 "http://www.w3.org/TR/2001/REC-SVG-20010904/DTD/svg10.dtd">
<svg version="1.0" xmlns="http://www.w3.org/2000/svg"
 width="256.000000pt" height="256.000000pt" viewBox="0 0 256.000000 256.000000"
 preserveAspectRatio="xMidYMid meet">

<g transform="translate(0.000000,256.000000) scale(0.100000,-0.100000)"
fill="#000000" stroke="none">
<path d="M1681 2219 c-212 -41 -371 -243 -371 -468 1 -167 27 -217 256 -493
102 -123 194 -229 204 -236 11 -8 25 -10 33 -5 28 15 389 458 413 505 13 26
31 76 39 110 83 354 -214 658 -574 587z m202 -74 c126 -33 217 -106 274 -221
30 -62 37 -88 41 -153 6 -100 -21 -195 -75 -269 -57 -77 -327 -401 -335 -401
-16 -2 -157 180 -173 223 -33 86 -2 219 70 305 35 40 122 111 138 111 6 0 -2
-12 -18 -27 -37 -35 -95 -106 -123 -154 -27 -46 -55 -153 -47 -180 6 -19 12
-20 53 -14 63 9 161 55 209 99 22 19 55 64 74 98 33 62 34 65 34 183 0 138
-15 194 -75 272 -53 70 -132 108 -226 108 -76 0 -76 10 -1 24 66 14 118 12
180 -4z m-67 -76 c44 -21 114 -90 114 -112 0 -7 -29 -20 -69 -30 -243 -63
-341 -216 -301 -473 7 -46 11 -86 8 -89 -8 -9 -126 140 -153 193 -79 157 -48
345 76 456 62 56 113 74 208 75 56 1 85 -4 117 -20z"/>
<path d="M1519 606 c-74 -26 -137 -66 -188 -120 -19 -20 -38 -36 -41 -36 -3 0
-30 19 -60 41 -73 55 -161 96 -246 114 -346 73 -689 -176 -722 -526 l-8 -79
87 0 87 0 11 46 c18 72 77 127 174 165 197 76 433 58 584 -44 48 -33 92 -101
93 -144 0 -22 3 -23 90 -23 l90 0 0 33 c0 53 -28 165 -54 223 l-25 55 23 8
c12 5 67 19 122 30 122 27 134 30 134 40 0 5 -24 27 -54 49 l-54 41 50 51 c87
90 44 125 -93 76z"/>
<path d="M591 54 c-35 -45 -28 -54 39 -54 66 0 76 13 44 58 -21 30 -58 28 -83
-4z"/>
<path d="M1051 54 c-35 -45 -28 -54 39 -54 51 0 60 3 60 18 0 24 -36 62 -60
62 -10 0 -28 -12 -39 -26z"/>
</g>
</svg>
